<svg xmlns="http://www.w3.org/2000/svg" width="500" height="500" viewBox="0 0 500 500"><rect width="100%" height="100%" fill="#DDDDDD"/><path fill="#999999" d="M109.925 265.225h7.89q2.18 0 3.66-.52t2.36-1.39q.88-.87 1.28-2.03.39-1.16.39-2.47 0-1.36-.44-2.45-.43-1.09-1.36-1.86-.93-.76-2.39-1.17-1.47-.41-3.53-.41h-7.86v12.3Zm6.65-29.81h-6.65v12.12h6.21q4 0 6.05-1.45 2.04-1.45 2.04-4.61 0-3.28-1.85-4.67-1.86-1.39-5.8-1.39Zm-14.45-6.03h14.45q4.11 0 7.04.78 2.93.78 4.8 2.23 1.87 1.45 2.74 3.51.87 2.06.87 4.64 0 1.48-.43 2.83-.44 1.35-1.35 2.52-.91 1.18-2.32 2.13-1.41.96-3.35 1.63 8.64 1.94 8.64 9.33 0 2.67-1.01 4.93-1.02 2.27-2.96 3.91-1.94 1.63-4.79 2.56-2.84.93-6.49.93h-15.84v-41.93Zm37.3 12.18h7.19v29.75h-7.19v-29.75Zm8.18-8.68q0 .93-.38 1.74-.38.82-1 1.43-.63.6-1.47.97-.84.36-1.79.36-.93 0-1.76-.36-.83-.37-1.43-.97-.61-.61-.98-1.43-.36-.81-.36-1.74 0-.95.36-1.79.37-.84.98-1.45.6-.61 1.43-.97.83-.37 1.76-.37.95 0 1.79.37.84.36 1.47.97.62.61 1 1.45t.38 1.79Zm6.4-4.66h7.17v43.09h-7.17v-43.09Zm33.01 34.27v-13.34q-1.22-1.48-2.66-2.08-1.43-.61-3.09-.61-1.62 0-2.92.61-1.31.6-2.24 1.84-.93 1.23-1.42 3.13-.49 1.9-.49 4.48 0 2.61.42 4.42.42 1.82 1.2 2.96.79 1.15 1.92 1.65 1.13.51 2.52.51 2.23 0 3.8-.93 1.56-.93 2.96-2.64Zm0-34.27h7.16v43.09h-4.38q-1.42 0-1.8-1.31l-.61-2.87q-1.79 2.06-4.13 3.34-2.33 1.27-5.44 1.27-2.43 0-4.46-1.01t-3.5-2.94q-1.46-1.93-2.26-4.77-.8-2.85-.8-6.5 0-3.31.9-6.15.9-2.84 2.58-4.93 1.69-2.09 4.03-3.26 2.35-1.18 5.28-1.18 2.5 0 4.27.79 1.76.78 3.16 2.11v-15.68Zm48.11 16.55-1.63 2.59q-.29.46-.61.65-.31.19-.81.19-.52 0-1.11-.29-.6-.29-1.38-.66-.78-.36-1.78-.65-1.01-.29-2.37-.29-2.12 0-3.32.9-1.2.9-1.2 2.35 0 .96.62 1.61.62.65 1.65 1.14 1.03.5 2.34.89 1.3.39 2.65.85 1.35.47 2.66 1.06 1.3.6 2.33 1.51t1.65 2.19q.63 1.28.63 3.07 0 2.15-.77 3.96-.77 1.82-2.28 3.14-1.51 1.31-3.72 2.05-2.22.74-5.12.74-1.54 0-3-.27-1.47-.28-2.82-.77-1.35-.49-2.49-1.16-1.15-.67-2.02-1.45l1.66-2.73q.31-.49.75-.75.43-.26 1.1-.26.67 0 1.26.38.6.37 1.38.81.78.43 1.84.81 1.06.38 2.68.38 1.28 0 2.19-.31.92-.3 1.51-.8.6-.49.87-1.14.28-.65.28-1.35 0-1.04-.63-1.71-.62-.67-1.65-1.16-1.03-.49-2.35-.88-1.32-.4-2.69-.86-1.38-.46-2.7-1.09-1.32-.62-2.35-1.58-1.03-.96-1.65-2.35-.63-1.39-.63-3.36 0-1.83.73-3.48.72-1.65 2.13-2.89 1.41-1.23 3.51-1.97 2.1-.74 4.86-.74 3.07 0 5.59 1.02 2.53 1.01 4.21 2.66Zm21.43 18.85v-5.01q-3.1.14-5.22.53-2.12.4-3.39 1-1.28.61-1.83 1.43-.55.81-.55 1.76 0 1.89 1.11 2.7 1.12.81 2.92.81 2.2 0 3.81-.79 1.61-.8 3.15-2.43Zm-15.14-15.63-1.28-2.29q5.14-4.7 12.36-4.7 2.61 0 4.67.86t3.48 2.38q1.42 1.52 2.16 3.64.74 2.11.74 4.64v18.79h-3.25q-1.02 0-1.57-.3-.55-.31-.87-1.24l-.63-2.14q-1.14 1.01-2.21 1.78t-2.23 1.29q-1.16.52-2.48.8-1.32.27-2.92.27-1.88 0-3.48-.5-1.59-.51-2.75-1.53-1.16-1.01-1.8-2.52-.64-1.51-.64-3.51 0-1.13.38-2.25.38-1.11 1.23-2.13.86-1.01 2.22-1.91 1.36-.9 3.35-1.57 1.99-.66 4.63-1.08 2.64-.42 6.03-.51v-1.74q0-2.99-1.28-4.42-1.27-1.44-3.68-1.44-1.74 0-2.89.41-1.14.4-2.01.91-.87.51-1.58.91-.71.41-1.58.41-.76 0-1.28-.39t-.84-.92Zm28.86-19.77h7.16v24.67h1.33q.73 0 1.15-.18.42-.19.85-.77l7.4-9.14q.46-.61 1.03-.93.56-.31 1.46-.31h6.56l-9.25 11.04q-.99 1.31-2.15 2.01.61.43 1.09 1.01.48.58.91 1.25l9.92 14.44h-6.47q-.84 0-1.45-.28-.61-.27-1.01-1l-7.6-11.28q-.41-.66-.84-.87-.44-.2-1.31-.2h-1.62v13.63h-7.16v-43.09Zm37.2 14.64.5 2.35q.89-.9 1.9-1.67 1-.77 2.11-1.3 1.12-.54 2.39-.84 1.28-.31 2.79-.31 2.43 0 4.32.83 1.89.82 3.15 2.32 1.26 1.49 1.91 3.57.65 2.07.65 4.56v18.94h-7.16v-18.94q0-2.72-1.25-4.22-1.24-1.49-3.8-1.49-1.85 0-3.48.84-1.62.84-3.07 2.29v21.52h-7.16v-29.75h4.38q1.39 0 1.82 1.3Zm42.23 20.76v-5.01q-3.11.14-5.22.53-2.12.4-3.4 1-1.27.61-1.82 1.43-.55.81-.55 1.76 0 1.89 1.11 2.7 1.12.81 2.92.81 2.2 0 3.81-.79 1.61-.8 3.15-2.43Zm-15.14-15.63-1.28-2.29q5.14-4.7 12.36-4.7 2.61 0 4.67.86t3.48 2.38q1.42 1.52 2.16 3.64.74 2.11.74 4.64v18.79h-3.25q-1.02 0-1.57-.3-.55-.31-.87-1.24l-.64-2.14q-1.13 1.01-2.2 1.78-1.07.77-2.23 1.29t-2.48.8q-1.32.27-2.92.27-1.88 0-3.48-.5-1.59-.51-2.75-1.53-1.16-1.01-1.8-2.52-.64-1.51-.64-3.51 0-1.13.38-2.25.38-1.11 1.23-2.13.86-1.01 2.22-1.91 1.36-.9 3.35-1.57 1.99-.66 4.63-1.08 2.63-.42 6.03-.51v-1.74q0-2.99-1.28-4.42-1.27-1.44-3.68-1.44-1.74 0-2.89.41-1.14.4-2.01.91-.87.51-1.58.91-.71.41-1.58.41-.76 0-1.28-.39t-.84-.92Zm48.63-3.22-1.62 2.59q-.29.46-.61.65t-.81.19q-.53 0-1.12-.29-.59-.29-1.38-.66-.78-.36-1.78-.65-1-.29-2.36-.29-2.12 0-3.32.9-1.21.9-1.21 2.35 0 .96.63 1.61.62.65 1.65 1.14 1.03.5 2.33.89 1.31.39 2.66.85 1.34.47 2.65 1.06 1.31.6 2.33 1.51 1.03.91 1.66 2.19.62 1.28.62 3.07 0 2.15-.77 3.96-.77 1.82-2.27 3.14-1.51 1.31-3.73 2.05-2.22.74-5.12.74-1.54 0-3-.27-1.47-.28-2.81-.77-1.35-.49-2.5-1.16-1.14-.67-2.01-1.45l1.65-2.73q.32-.49.75-.75.44-.26 1.11-.26.66 0 1.26.38.59.37 1.38.81.78.43 1.84.81 1.05.38 2.68.38 1.28 0 2.19-.31.91-.3 1.51-.8.59-.49.87-1.14.27-.65.27-1.35 0-1.04-.62-1.71-.63-.67-1.65-1.16-1.03-.49-2.35-.88-1.32-.4-2.7-.86-1.38-.46-2.7-1.09-1.32-.62-2.35-1.58-1.03-.96-1.65-2.35-.62-1.39-.62-3.36 0-1.83.72-3.48.73-1.65 2.13-2.89 1.41-1.23 3.51-1.97 2.11-.74 4.86-.74 3.07 0 5.6 1.02 2.52 1.01 4.2 2.66Zm6.99-15.39h6.73v16.58q0 2.64-.26 5.18-.26 2.54-.67 5.38h-4.87q-.41-2.84-.67-5.38-.26-2.54-.26-5.18v-16.58Zm-1.13 37.99q0-.9.33-1.72.34-.81.93-1.39.6-.58 1.41-.93.81-.34 1.74-.34.9 0 1.71.34.81.35 1.41.93.59.58.94 1.39.35.82.35 1.72 0 .92-.35 1.72-.35.8-.94 1.38-.6.58-1.41.91-.81.34-1.71.34-.93 0-1.74-.34-.81-.33-1.41-.91-.59-.58-.93-1.38-.33-.8-.33-1.72Z"/></svg>